<?xml version="1.0" encoding="UTF-8" standalone="no"?>
<!-- Created with Inkscape (http://www.inkscape.org/) -->

<svg
   width="512"
   height="512"
   viewBox="0 0 512 512"
   version="1.1"
   id="svg1"
   inkscape:version="1.4 (e7c3feb100, 2024-10-09)"
   sodipodi:docname="com.github.yucefsourani.simplewgconfig.svg"
   xmlns:inkscape="http://www.inkscape.org/namespaces/inkscape"
   xmlns:sodipodi="http://sodipodi.sourceforge.net/DTD/sodipodi-0.dtd"
   xmlns="http://www.w3.org/2000/svg"
   xmlns:svg="http://www.w3.org/2000/svg">
  <sodipodi:namedview
     id="namedview1"
     pagecolor="#ffffff"
     bordercolor="#666666"
     borderopacity="1.0"
     inkscape:showpageshadow="2"
     inkscape:pageopacity="0.0"
     inkscape:pagecheckerboard="0"
     inkscape:deskcolor="#d1d1d1"
     inkscape:document-units="px"
     inkscape:zoom="0.56152344"
     inkscape:cx="215.48522"
     inkscape:cy="268.02087"
     inkscape:window-width="1290"
     inkscape:window-height="761"
     inkscape:window-x="0"
     inkscape:window-y="0"
     inkscape:window-maximized="1"
     inkscape:current-layer="layer1" />
  <defs
     id="defs1" />
  <g
     inkscape:label="Layer 1"
     inkscape:groupmode="layer"
     id="layer1">
    <path
       id="rect1"
       style="fill:#000000;stroke-width:10.0875"
       d="M -2.3113044,-3.4226107 V 512.2184 H 515.97106 V -3.4226107 Z M 346.43281,160.9753 c 7.08688,0 13.75178,0.90814 19.99247,2.7253 6.29364,1.76666 12.19034,4.44201 17.69062,8.02581 v 16.12768 c -5.39459,-4.79526 -11.16077,-8.37868 -17.29578,-10.75105 -6.08203,-2.37243 -12.55954,-3.55838 -19.43488,-3.55838 -13.53924,0 -23.9058,3.96168 -31.0985,11.88649 -7.19272,7.87427 -10.78922,19.28288 -10.78922,34.22389 0,14.89047 3.5965,26.29686 10.78922,34.22166 7.1927,7.87427 17.55926,11.8125 31.0985,11.8125 6.87534,0 13.35285,-1.18592 19.43488,-3.55835 6.13501,-2.37234 11.90119,-5.95791 17.29578,-10.75319 v 15.97759 c -5.60609,3.63431 -11.55752,6.35875 -17.85113,8.1759 -6.24074,1.81717 -12.85082,2.72529 -19.83196,2.72529 -17.92892,0 -32.04979,-5.22237 -42.3629,-15.671 -10.31311,-10.49905 -15.46899,-24.80944 -15.46899,-42.9304 0,-18.17147 5.15588,-32.48185 15.46899,-42.93047 10.31311,-10.49908 24.43398,-15.74927 42.3629,-15.74927 z m -142.70948,6.91155 h 19.12687 c 7.01813,0 12.31523,1.50233 15.89421,4.50766 3.60697,2.97892 5.41089,7.35415 5.41089,13.12756 0,5.82608 -1.80392,10.22899 -5.41089,13.20791 -0.36247,0.30148 -0.74565,0.58517 -1.14335,0.8563 h 9.17074 l 30.87719,54.69427 v -54.69427 h 9.14253 v 65.37776 H 274.10395 L 243.22673,210.2697 v 54.69434 h -9.14256 v -63.54893 c -3.06012,1.1876 -6.80277,1.78445 -11.23397,1.78445 h -10.65473 v 23.72647 h -8.47214 v -47.62842 l -30.5778,98.34573 h -18.8535 L 122.61859,175.77311 h 14.70529 l 26.39489,85.49936 26.3949,-85.49936 h 13.60966 z m 0,7.88626 v 3.5245 l 1.09563,-3.5245 z m 30.36084,25.642 c 1.29569,-0.50279 2.46698,-1.11308 3.51689,-1.82883 h -3.51689 z m -21.8887,-26.9634 v 22.18303 h 10.65473 c 3.94246,0 6.98956,-0.96154 9.14252,-2.88602 2.15299,-1.92445 3.22832,-4.66772 3.22832,-8.22665 0,-3.53261 -1.07533,-6.25991 -3.22832,-8.18436 -2.15296,-1.92448 -5.20006,-2.886 -9.14252,-2.886 z m 146.60818,20.00531 c 3.02735,0 5.89901,0.34539 8.61533,1.03812 2.737,0.69267 5.25712,1.71256 7.55876,3.05936 v 6.20539 c -2.32238,-1.82782 -4.78991,-3.20356 -7.40255,-4.12702 -2.61266,-0.92357 -5.35997,-1.38489 -8.24218,-1.38489 -5.68143,0 -9.95414,1.47086 -12.81562,4.41463 -2.84066,2.94373 -4.261,7.3316 -4.261,13.16135 0,5.81055 1.42034,10.18804 4.261,13.1318 2.86148,2.94373 7.13419,4.41461 12.81562,4.41461 2.2187,0 4.1985,-0.17391 5.94024,-0.52011 1.74181,-0.36557 3.30784,-0.92203 4.69712,-1.6724 v -11.57358 h -10.26422 v -4.7909 h 16.48436 v 18.49992 c -2.42602,1.59695 -5.10155,2.80925 -8.02519,3.63659 -2.92364,0.80806 -6.04406,1.2114 -9.36167,1.2114 -7.25733,0 -12.9385,-1.96321 -17.04407,-5.88819 -4.08488,-3.94427 -6.12685,-9.42646 -6.12685,-16.44914 0,-7.04188 2.04197,-12.52619 6.12685,-16.45118 4.10557,-3.94424 9.78674,-5.91576 17.04407,-5.91576 z M 95.403607,239.85695 h 4.425904 l 6.812419,26.68223 6.79074,-26.68223 h 4.9249 l 6.81242,26.68223 6.79074,-26.68223 h 4.44759 l -8.13585,31.56616 h -5.51069 l -6.83412,-27.40102 -6.8992,27.40102 h -5.51069 z"
       sodipodi:nodetypes="cccccsccccscscsccccscscscscsccccccccccccsccccccccccccccccccccccssssscscccsscscsccccccccscscscccccccccccccc" />
    <path
       style="fill:#f9f9f9;stroke-width:5.79199"
       d="m 138.97438,227.13991 c -8.57448,-27.61725 -15.58467,-50.42569 -15.57819,-50.68541 0.006,-0.25972 3.07313,-0.47222 6.81478,-0.47222 h 6.803 l 13.18783,42.80713 c 7.2533,23.54393 13.32949,42.80933 13.50264,42.812 0.17315,0.003 6.25342,-19.26054 13.5117,-42.80714 l 13.19688,-42.81199 h 6.47914 c 6.29086,0 6.47996,0.0412 6.50774,1.41667 0.0157,0.77917 -6.84772,23.58761 -15.25215,50.68541 l -15.28077,49.26874 h -9.15131 -9.15131 z"
       id="path1" />
    <path
       style="fill:#f9f9f9;stroke-width:5.79199"
       d="m 154.33758,275.95377 c -0.29371,-0.78871 -0.8483,-2.42568 -1.23242,-3.63773 -0.38412,-1.21204 -1.32913,-4.18705 -2.10001,-6.61114 -0.77088,-2.42408 -1.46646,-4.79082 -1.54575,-5.25942 -0.0793,-0.4686 -0.72173,-2.59361 -1.42766,-4.72225 -1.96429,-5.92306 -4.0548,-12.64878 -4.04067,-12.99991 0.007,-0.17315 -0.67367,-2.29816 -1.51253,-4.72225 -0.83886,-2.42408 -1.6406,-4.94985 -1.78164,-5.61281 -0.14104,-0.66297 -0.73503,-2.64631 -1.31998,-4.40743 -0.58495,-1.76112 -1.01003,-3.20204 -0.94463,-3.20204 0.0654,0 -0.61561,-2.12501 -1.51337,-4.72224 -0.89775,-2.59724 -1.73786,-5.2137 -1.8669,-5.81438 -0.2872,-1.33689 -4.63656,-15.53956 -5.1608,-16.85239 -0.20742,-0.51945 -0.44391,-1.22778 -0.52553,-1.57408 -0.7432,-3.15319 -2.45585,-8.33983 -2.96267,-8.97226 -0.34689,-0.43288 -0.47629,-0.78704 -0.28755,-0.78704 0.18874,0 -0.30533,-2.10188 -1.09795,-4.67084 l -1.44111,-4.67083 1.33245,-0.35763 c 0.73285,-0.1967 3.74079,-0.35641 6.68433,-0.35493 l 5.35187,0.003 1.47327,4.86836 c 0.8103,2.67759 2.00461,6.56836 2.65401,8.64614 0.6494,2.07779 1.7568,5.61947 2.46088,7.87041 0.70408,2.25094 1.32026,4.37595 1.36927,4.72224 0.049,0.3463 0.63606,2.18798 1.30454,4.09261 0.66848,1.90464 1.32989,4.00541 1.4698,4.66837 0.1399,0.66297 0.73297,2.64631 1.31792,4.40743 0.58495,1.76112 0.99779,3.20204 0.91742,3.20204 -0.0804,0 0.53105,1.98334 1.35871,4.40742 0.82767,2.42409 2.15071,6.53244 2.94011,9.12968 0.7894,2.59723 2.06982,6.70558 2.84538,9.12967 0.77556,2.42408 2.50973,7.87827 3.85372,12.12042 1.34399,4.24215 2.60957,7.713 2.81239,7.713 0.20282,0 1.59061,-3.89585 3.08397,-8.65745 1.49337,-4.76159 3.22908,-10.21578 3.85714,-12.12042 0.62806,-1.90464 2.44471,-7.713 4.03699,-12.90747 1.59229,-5.19447 3.44342,-11.21867 4.11364,-13.38712 0.67022,-2.16844 1.78525,-5.7843 2.47785,-8.03524 0.69259,-2.25093 1.83969,-5.86011 2.5491,-8.02038 0.70941,-2.16028 1.40732,-4.49445 1.5509,-5.18704 0.14358,-0.6926 0.83237,-2.88844 1.53064,-4.87966 0.69827,-1.99121 1.17884,-3.62038 1.06793,-3.62038 -0.1109,0 0.43887,-1.77084 1.22169,-3.93521 l 1.42334,-3.9352 5.58076,-0.16026 c 3.06943,-0.0882 5.9419,0.0745 6.38328,0.36153 0.62657,0.4074 0.29697,2.23697 -1.50348,8.34549 -1.26829,4.30303 -2.36851,8.24869 -2.44493,8.76813 -0.0764,0.51945 -0.44195,1.68839 -0.81229,2.59765 -0.63248,1.55285 -2.04529,6.39923 -2.2713,7.79129 -0.0562,0.3463 -0.26761,0.91297 -0.46972,1.25927 -0.32215,0.55196 -4.86326,15.25245 -5.24394,16.97567 -0.0795,0.35972 -0.31419,1.07904 -0.52161,1.59848 -0.52423,1.31283 -4.87359,15.5155 -5.1608,16.8524 -0.12904,0.60067 -0.92096,3.07547 -1.75982,5.49956 -0.83887,2.42408 -1.52703,4.54909 -1.52925,4.72224 -0.006,0.50026 -2.76098,9.35299 -4.35905,14.00932 -0.80224,2.33751 -1.35871,4.25002 -1.23661,4.25002 0.12211,0 -0.41881,1.77084 -1.20205,3.9352 l -1.42407,3.93521 -8.89459,0.17475 c -8.7537,0.17198 -8.90305,0.15203 -9.42862,-1.25927 z"
       id="path2" />
    <path
       style="fill:#f9f9f9;stroke-width:5.79199"
       d="m 154.64065,276.83006 c -0.50028,-0.80947 -5.93852,-17.83777 -10.69142,-33.47711 -1.21028,-3.98243 -2.47547,-8.09078 -2.81153,-9.12967 -0.33606,-1.03889 -1.36638,-4.43891 -2.2896,-7.55559 -0.92322,-3.11668 -2.19577,-7.22503 -2.82788,-9.12967 -0.63212,-1.90464 -1.9208,-6.01299 -2.86375,-9.12967 -3.00047,-9.91738 -3.97896,-13.10141 -5.61127,-18.25934 -2.80581,-8.86603 -4.0262,-13.53178 -3.60398,-13.77853 0.22616,-0.13217 3.2595,-0.28872 6.74077,-0.34789 l 6.32958,-0.10758 1.77288,5.85773 c 0.97508,3.22176 2.27703,7.41608 2.89322,9.32071 0.61618,1.90464 1.74781,5.58799 2.51471,8.18523 0.76691,2.59723 1.89973,6.28058 2.51738,8.18522 0.61765,1.90464 1.89397,6.01299 2.83627,9.12967 1.75995,5.82112 3.05701,10.00024 6.83956,22.03714 1.19705,3.80927 3.24768,10.3968 4.55694,14.63895 1.30927,4.24215 2.55713,7.713 2.77303,7.713 0.36884,0 2.35534,-6.12437 8.27124,-25.50012 1.37453,-4.50187 2.88438,-9.31856 3.35521,-10.70375 0.47084,-1.38519 1.75803,-5.49354 2.86043,-9.12967 3.52207,-11.61712 4.48709,-14.73925 5.35188,-17.31489 1.3659,-4.06816 4.29206,-13.76365 4.49234,-14.88483 0.10147,-0.56811 0.69502,-2.40978 1.31898,-4.09262 l 1.13447,-3.05969 5.64854,-0.16026 c 3.10671,-0.0882 5.99036,0.0626 6.40811,0.33499 0.78154,0.50958 0.2131,3.18976 -2.86989,13.53153 -0.69876,2.34397 -1.24229,4.32731 -1.20785,4.40742 0.0611,0.14217 -1.16908,4.12821 -4.22293,13.68276 -0.83014,2.59724 -2.12256,6.84725 -2.87205,9.44449 -0.7495,2.59723 -1.59195,5.28891 -1.87213,5.98151 -0.28017,0.69259 -0.92189,2.67594 -1.42603,4.40742 -2.23898,7.68984 -3.80042,12.84242 -4.86551,16.05563 -0.63133,1.90464 -1.90597,6.01299 -2.83254,9.12967 -0.92656,3.11668 -2.18851,7.22504 -2.80432,9.12967 -0.61582,1.90464 -1.92429,6.08383 -2.90772,9.28708 l -1.78806,5.8241 h -8.96191 c -4.92905,0 -9.10738,-0.23537 -9.28517,-0.52304 z"
       id="path3" />
    <path
       style="fill:#f9f9f9;stroke-width:5.79199"
       d="m 204.00092,202.78264 c 0,-15.1125 0.24003,-24.20155 0.66892,-25.32961 0.47213,-1.2418 0.47213,-1.82498 0,-1.98235 -0.36791,-0.12264 -0.66892,-1.78166 -0.66892,-3.68671 v -3.46373 l 13.69451,0.22434 c 12.88868,0.21114 13.87281,0.31206 16.72471,1.71519 3.41726,1.68127 6.24759,4.27963 7.84934,7.20599 1.58651,2.89854 1.52945,13.10517 -0.0903,16.14622 -1.9805,3.71844 -4.18989,5.6667 -6.42621,5.6667 -1.43187,0 -2.10077,0.33759 -2.31848,1.17014 -0.41055,1.56994 -2.38465,1.94613 -12.59093,2.39934 l -8.65745,0.38444 v 11.56014 11.56013 h -4.09261 -4.09261 z m 25.80207,-7.43917 c 3.94962,-2.01815 5.26053,-4.10822 5.53305,-8.82163 0.18357,-3.17499 -0.0523,-4.46483 -1.22986,-6.72529 -2.25628,-4.33122 -4.80662,-5.33825 -14.20704,-5.60983 l -7.713,-0.22283 v 11.39813 11.39813 h 7.42218 c 6.45584,0 7.78314,-0.18445 10.19467,-1.41668 z"
       id="path4" />
    <path
       style="fill:#f9f9f9;stroke-width:5.79199"
       d="m 234.22328,233.295 v -31.46546 l 1.85763,-0.96061 c 1.13117,-0.58496 3.53309,-0.96062 6.14197,-0.96062 h 4.28434 l 15.42294,27.31788 15.42294,27.31788 0.16403,-27.31788 0.16403,-27.31788 h 4.4008 4.40081 v 32.44887 32.44887 l -6.1225,-0.18021 -6.12251,-0.1802 -15.44241,-27.37629 -15.4424,-27.37629 -0.16403,27.5337 -0.16402,27.53369 h -4.40081 -4.40081 z"
       id="path5" />
    <path
       style="fill:#f9f9f9;stroke-width:5.79199"
       d="m 335.96149,277.28587 c -24.02983,-3.50463 -40.40016,-18.5041 -45.45726,-41.65063 -0.54797,-2.50807 -1.13825,-8.52681 -1.31175,-13.37498 -0.67726,-18.92595 3.92162,-33.00616 14.394,-44.06951 8.11631,-8.57431 16.16465,-12.95622 28.45923,-15.49457 8.30611,-1.71489 23.77508,-1.43528 31.27162,0.56524 6.45099,1.72151 14.15506,4.78276 17.76772,7.06008 l 2.99076,1.88529 v 7.67224 7.67223 l -1.73149,-1.62725 c -5.08089,-4.77501 -15.36555,-9.77366 -23.58467,-11.46285 -6.3019,-1.29517 -17.50026,-1.29124 -23.35607,0.008 -14.67058,3.25549 -24.97734,13.73148 -28.56705,29.03612 -1.63901,6.98792 -1.62424,26.27637 0.025,32.6067 3.9508,15.16461 13.09348,24.63753 27.47333,28.46569 5.79218,1.54197 20.08219,1.50765 26.12975,-0.0628 5.86321,-1.52254 14.81817,-5.80983 19.67601,-9.42011 l 3.93521,-2.92458 v 7.49054 7.49055 l -5.52735,2.85476 c -3.04004,1.57012 -7.71462,3.58901 -10.38797,4.48642 -9.12165,3.06204 -22.43622,4.21705 -32.199,2.79319 z"
       id="path6" />
    <path
       style="fill:#f9f9f9;stroke-width:2.04778"
       d="m 99.579771,255.61043 -4.010957,-15.63826 2.005685,-0.0645 c 1.151634,-0.037 2.061002,0.0288 2.135593,0.15454 0.07145,0.12047 1.632518,6.13474 3.469038,13.36505 1.83652,7.23031 3.39463,13.14616 3.46247,13.14633 0.0678,1.7e-4 1.55183,-5.63447 3.29777,-12.52143 1.74594,-6.88695 3.27294,-12.90073 3.39333,-13.36394 l 0.21889,-0.84221 2.35815,0.0631 2.35814,0.0631 3.31424,13.02261 c 1.82284,7.16244 3.37147,13.17287 3.4414,13.35652 0.19616,0.51512 0.21952,0.43119 3.7634,-13.52347 l 3.29304,-12.96696 h 2.07828 c 1.14306,0 2.07828,0.0411 2.07828,0.0912 0,0.0502 -1.80313,7.08249 -4.00696,15.62735 -2.20382,8.54485 -4.00695,15.56913 -4.00695,15.60952 0,0.0404 -1.22164,0.0453 -2.71475,0.0109 l -2.71475,-0.0625 -3.35134,-13.51075 c -1.84323,-7.43092 -3.41351,-13.57031 -3.4895,-13.64309 -0.076,-0.0728 -1.67794,6.0321 -3.5599,13.5664 l -3.42175,13.69874 h -2.68995 -2.68994 z"
       id="path7" />
    <path
       style="fill:#f9f9f9;stroke-width:2.04778"
       d="m 153.30424,273.19652 c -0.71349,-2.23443 -1.80145,-5.66539 -2.4177,-7.62435 -0.61625,-1.95895 -1.18443,-3.61182 -1.26262,-3.67304 -0.0782,-0.0612 -0.17029,-0.36174 -0.20465,-0.66783 -0.0994,-0.88593 -1.64727,-5.66881 -1.86119,-5.75118 -0.10664,-0.0411 -0.13658,-0.16742 -0.0665,-0.28078 0.0701,-0.11335 -0.16908,-1.13158 -0.53143,-2.26272 -0.36235,-1.13114 -1.03172,-3.25871 -1.4875,-4.72793 -0.45577,-1.46921 -0.91784,-2.7049 -1.02682,-2.74596 -0.10898,-0.0411 -0.14274,-0.16433 -0.075,-0.27392 0.11122,-0.17995 -1.71892,-6.2541 -6.83693,-22.69142 -2.13096,-6.84391 -6.44007,-20.80071 -9.75961,-31.61043 -0.46998,-1.53044 -1.00925,-3.2334 -1.19837,-3.78435 -0.35013,-1.01998 -2.66638,-8.983 -2.92124,-10.04287 -0.10535,-0.43813 -0.0396,-0.62377 0.26618,-0.75095 0.22337,-0.0929 3.26269,-0.21973 6.75406,-0.2818 l 6.34793,-0.11285 1.763,5.76119 c 0.96965,3.16866 2.13459,6.96328 2.58876,8.4325 1.64779,5.33059 2.49698,8.0932 3.76345,12.24347 0.70987,2.32626 2.36437,7.68557 3.67668,11.90957 1.31231,4.224 2.56376,8.28104 2.781,9.01565 0.21723,0.73461 0.84958,2.78818 1.40522,4.56348 0.55563,1.7753 1.97641,6.33322 3.15727,10.12869 1.18086,3.79548 2.24097,6.93447 2.3558,6.97554 0.11483,0.0411 0.15076,0.16853 0.0798,0.28326 -0.12945,0.20945 0.51998,2.43886 0.77115,2.64729 0.0738,0.0612 0.13595,0.21148 0.13818,0.33391 0.0107,0.58705 0.61974,2.56 0.7903,2.56 0.10638,0 0.15073,0.12522 0.0986,0.27827 -0.1404,0.41183 3.07631,9.85906 3.33666,9.79952 0.2388,-0.0546 0.71707,-1.40312 2.77931,-7.83648 0.72338,-2.25667 1.26458,-4.18502 1.20265,-4.28522 -0.0619,-0.10019 -0.0254,-0.18217 0.0811,-0.18217 0.17254,0 0.81899,-1.99385 0.83002,-2.56 0.002,-0.12244 0.0678,-0.2727 0.14525,-0.33392 0.0775,-0.0612 0.9181,-2.61565 1.86801,-5.67652 2.47732,-7.98267 2.78229,-9.04986 2.64818,-9.26686 -0.0659,-0.1067 -0.0236,-0.19401 0.0942,-0.19401 0.11774,0 0.43116,-0.72626 0.69649,-1.61391 0.26533,-0.88765 1.31595,-4.26852 2.33471,-7.51304 1.01876,-3.24452 2.3247,-7.45183 2.90209,-9.34957 0.57739,-1.89774 2.40202,-7.808 4.05472,-13.13391 4.20147,-13.53943 4.82089,-15.63191 4.84342,-16.36174 0.004,-0.12243 0.067,-0.2727 0.14045,-0.33391 0.0735,-0.0612 0.58297,-1.46366 1.13223,-3.11652 l 0.99864,-3.00522 h 5.76865 c 3.17275,0 6.04412,0.077 6.38081,0.1712 0.52938,0.14804 0.61143,0.28353 0.60664,1.00173 -0.003,0.4568 -0.60881,2.88411 -1.34616,5.39402 -0.73734,2.50992 -1.84335,6.31653 -2.45779,8.45913 -1.2846,4.47951 -3.06969,10.38706 -4.64135,15.36 -0.59977,1.89774 -1.75673,5.65427 -2.57103,8.34783 -0.81429,2.69357 -2.0697,6.75061 -2.78978,9.01565 -0.72008,2.26505 -2.419,7.77461 -3.77536,12.24348 -1.35637,4.46887 -2.8058,9.17704 -3.22097,10.46261 -0.41516,1.28556 -1.15431,3.63965 -1.64256,5.2313 -1.93876,6.32024 -5.67345,18.3838 -6.37475,20.59131 -0.4084,1.28556 -0.90873,2.91339 -1.11182,3.61739 l -0.36927,1.28 h -9.16693 -9.16694 z"
       id="path8" />
    <path
       style="fill:#f9f9f9;stroke-width:2.04778"
       d="m 340.81384,277.68823 c -12.40683,-0.71313 -24.42349,-5.29051 -33.20482,-12.64835 -8.34537,-6.99256 -14.36467,-17.31226 -16.96592,-29.08695 -0.93517,-4.23311 -1.58928,-13.5627 -1.38819,-19.79989 0.5415,-16.79617 5.39817,-28.93992 15.69006,-39.23181 6.57016,-6.57016 12.86633,-10.27913 21.80605,-12.84559 6.82467,-1.95926 11.11194,-2.42962 20.85246,-2.28773 7.62901,0.11113 10.90578,0.41335 14.93442,1.37742 6.65308,1.59212 15.14324,5.01618 19.73688,7.95983 L 384,172.2307 v 7.59361 7.59361 l -0.94609,-0.90707 c -1.4523,-1.39241 -3.42563,-2.92481 -5.50956,-4.27849 -2.26232,-1.46956 -8.21361,-4.51975 -8.48786,-4.35026 -0.10664,0.0659 -0.19388,0.0369 -0.19388,-0.0645 0,-0.20194 -3.18722,-1.47443 -3.69303,-1.47443 -0.17266,0 -0.31393,-0.0942 -0.31393,-0.20933 0,-0.11512 -0.15026,-0.15166 -0.33391,-0.0812 -0.18365,0.0705 -0.33391,0.044 -0.33391,-0.0589 0,-0.26266 -4.81708,-1.50775 -7.46965,-1.93071 -4.52153,-0.72097 -19.15499,-0.6228 -19.42474,0.13032 -0.0385,0.10754 -0.20942,0.14204 -0.37979,0.0767 -0.67165,-0.25774 -7.67539,1.73934 -7.67539,2.1886 0,0.1142 -0.087,0.15387 -0.19332,0.0882 -0.23316,-0.14411 -4.29822,1.80338 -4.53232,2.17134 -0.0907,0.14259 -0.16647,0.18039 -0.16834,0.084 -0.003,-0.16593 -2.66124,1.53162 -2.89732,1.85038 -0.0612,0.0827 -0.22739,0.19035 -0.36926,0.23932 -0.69509,0.23991 -4.26762,3.58093 -6.15096,5.75237 -1.32204,1.52427 -3.43823,4.80077 -4.60328,7.12726 -1.92789,3.84981 -3.72547,9.3667 -3.89862,11.96511 -0.0425,0.63755 -0.12557,1.2386 -0.18463,1.33565 -0.15095,0.24806 -0.55853,5.97572 -0.71747,10.08255 -0.13454,3.47625 0.14178,10.36728 0.58913,14.69218 0.59514,5.75371 3.24087,12.8614 6.69115,17.97565 0.59884,0.88765 1.19184,1.61391 1.31777,1.61391 0.12593,0 0.17065,0.0944 0.0994,0.20968 -0.17257,0.27923 4.9963,5.49243 6.59769,6.65427 1.54852,1.12348 4.4047,2.86857 4.85867,2.96858 0.18365,0.0405 0.384,0.13703 0.44522,0.21461 0.22998,0.29146 3.17532,1.51845 3.36442,1.40158 0.10853,-0.0671 0.19732,-0.0335 0.19732,0.0745 0,0.24986 3.87228,1.51581 5.90822,1.93155 2.72368,0.55618 6.08291,0.7743 11.67786,0.75825 5.76783,-0.0165 8.48917,-0.19483 11.57566,-0.75835 1.92164,-0.35085 5.56801,-1.49909 7.50474,-2.36324 0.58613,-0.26153 1.17708,-0.49911 1.31322,-0.52797 0.60137,-0.12745 6.8612,-3.30801 8.89928,-4.52165 1.78992,-1.06585 5.22229,-3.45636 7.15928,-4.98615 0.22147,-0.17491 0.27826,1.33805 0.27826,7.4133 0,4.19817 -0.0576,7.57546 -0.12797,7.50508 -0.0704,-0.0704 -2.14899,0.89424 -4.61913,2.14362 -9.1321,4.61893 -14.92462,6.48188 -23.61252,7.59408 -2.38694,0.30557 -10.26794,0.82076 -11.37603,0.74366 -0.24487,-0.017 -1.7976,-0.10871 -3.45051,-0.20371 z"
       id="path9" />
    <path
       style="fill:#f9f9f9;stroke-width:2.04778"
       d="m 353.32293,238.62854 c -7.1946,-1.25956 -12.45499,-5.00404 -15.29528,-10.88759 -2.99554,-6.20512 -3.0432,-15.37385 -0.11253,-21.64388 1.09199,-2.33625 1.98045,-3.6148 3.72236,-5.35671 2.63037,-2.63037 5.83982,-4.33853 10.2607,-5.46103 1.70802,-0.43368 2.52027,-0.49243 6.83573,-0.49444 3.89587,-0.002 5.28434,0.0804 6.78957,0.40203 2.56521,0.54813 6.27848,1.80165 7.90261,2.66776 l 1.33565,0.71228 0.0621,2.95252 0.0621,2.95252 -1.46975,-1.00623 c -5.19283,-3.55515 -11.68446,-4.99293 -18.1456,-4.01894 -3.70864,0.55906 -6.23274,1.70924 -8.51259,3.87899 -3.02781,2.8816 -4.60588,7.50529 -4.60588,13.49505 0,9.40654 3.87967,15.23604 11.32063,17.01011 4.84886,1.15606 12.2247,0.63468 15.63516,-1.1052 l 0.86767,-0.44266 v -5.8946 -5.89461 h -5.12 -5.12 v -2.33739 -2.33739 h 8.12522 8.12522 v 9.24153 9.24154 l -0.72348,0.45168 c -2.31646,1.4462 -5.68534,2.7542 -9.18261,3.56522 -2.67099,0.61941 -9.97459,0.79657 -12.75707,0.30944 z"
       id="path10" />
    <path
       style="fill:#f9f9f9;stroke-width:4.09555"
       d="m 234.18435,233.30535 v -31.3764 l 1.44695,-0.77007 c 1.02362,-0.54476 2.82585,-0.8223 6.15998,-0.94861 l 4.71301,-0.17855 4.58097,8.17196 c 2.51953,4.49459 4.80632,8.31916 5.08176,8.49907 0.27544,0.1799 0.36486,0.33016 0.19871,0.33391 -0.39548,0.009 4.95633,9.47986 5.59771,9.90609 0.27072,0.1799 0.35828,0.33016 0.1946,0.33391 -0.36829,0.008 8.93899,16.59771 9.52361,16.97485 0.23222,0.14982 0.36217,0.35017 0.28877,0.44522 -0.0734,0.0951 1.06148,2.33392 2.52197,4.97526 l 2.65544,4.80242 0.2949,-2.13112 c 0.1622,-1.17211 0.31247,-13.40068 0.33392,-27.1746 l 0.039,-25.04347 h 4.22957 4.22956 v 32.34683 32.34683 l -5.83472,-0.2953 c -5.48245,-0.27748 -7.25032,-0.61302 -7.08728,-1.34514 0.093,-0.41764 -3.14388,-6.21637 -3.66205,-6.56039 -0.22564,-0.14982 -0.34365,-0.35016 -0.26225,-0.44522 0.21214,-0.2477 -5.02584,-9.45741 -5.60186,-9.84949 -0.26429,-0.17991 -0.34459,-0.33017 -0.17844,-0.33392 0.369,-0.008 -4.93633,-9.46899 -5.52443,-9.85137 -0.23041,-0.14981 -0.38869,-0.40759 -0.35172,-0.57285 0.0989,-0.44224 -3.17155,-6.22271 -3.73719,-6.60534 -0.26594,-0.1799 -0.3476,-0.33016 -0.18145,-0.33391 0.36901,-0.008 -4.93632,-9.469 -5.52442,-9.85138 -0.23042,-0.14981 -0.41863,-0.45033 -0.41827,-0.66783 0.001,-0.72619 -3.99767,-7.74152 -4.41284,-7.74152 -0.24427,0 -0.40917,10.94501 -0.40917,27.15826 v 27.15826 h -4.45217 -4.45217 z"
       id="path11" />
    <path
       style="fill:#f9f9f9;stroke-width:4.09555"
       d="m 204.05003,225.67171 c -0.41021,-1.069 0.29282,-46.00303 0.75158,-48.03712 0.21913,-0.97158 0.22403,-1.94708 0.0111,-2.20371 -0.21015,-0.25324 -0.52846,-1.94589 -0.70734,-3.76143 l -0.32525,-3.30098 13.08735,0.30552 c 7.19804,0.16804 13.78856,0.47671 14.6456,0.68595 0.85705,0.20924 1.85879,0.45528 2.22609,0.54677 0.3673,0.0915 0.7699,0.30053 0.89465,0.46455 0.12475,0.16402 0.52193,0.36437 0.88262,0.44522 0.36068,0.0808 2.03558,1.48306 3.72199,3.11602 2.50977,2.43024 3.13382,3.31897 3.43886,4.8974 0.53431,2.76479 0.4951,10.77741 -0.0635,12.97295 -0.96235,3.78261 -4.48116,7.43193 -7.16616,7.43193 -0.90775,0 -1.5001,0.35358 -2.05112,1.22435 -1.06496,1.68294 -1.48663,1.76381 -11.0104,2.11168 -3.67305,0.13416 -7.52974,0.35228 -8.57044,0.48471 l -1.89217,0.24078 v 11.54837 11.54837 h -3.79832 c -3.09082,0 -3.84988,-0.13436 -4.07513,-0.72133 z m 25.01432,-29.94573 c 3.32583,-1.48075 5.25498,-3.50026 5.93569,-6.21373 0.56681,-2.25943 0.29296,-7.80154 -0.45457,-9.19948 -1.21216,-2.26682 -3.7051,-4.571 -5.52532,-5.10694 -2.05627,-0.60545 -9.3218,-1.30169 -13.86885,-1.32903 l -3.22782,-0.0194 v 11.27884 c 0,6.20336 0.15026,11.4344 0.33391,11.62453 0.18365,0.19013 3.53948,0.25809 7.45739,0.15101 6.13658,-0.16771 7.43189,-0.33199 9.34957,-1.18579 z"
       id="path12" />
    <path
       style="fill:#f9f9f9;stroke-width:4.09555"
       d="m 204.05037,225.67258 c -0.15206,-0.39626 -0.11165,-11.06478 0.0898,-23.70783 0.44379,-27.85214 0.44328,-26.24966 0.01,-30.29312 l -0.35372,-3.29881 13.11367,0.2678 c 13.10227,0.26758 16.72313,0.66567 18.27625,2.00939 0.42852,0.37075 0.77913,0.52786 0.77913,0.34915 0,-0.17871 1.42635,1.07621 3.16968,2.78872 2.59535,2.54946 3.23721,3.46307 3.54235,5.04202 0.60765,3.1443 0.47759,11.13922 -0.21885,13.45333 -1.12832,3.74913 -4.35115,6.94615 -7.00598,6.94989 -0.8441,10e-4 -1.44477,0.41411 -2.10729,1.44862 -0.50966,0.79582 -0.93003,1.28964 -0.93415,1.09738 -0.004,-0.19227 -0.39088,-0.1444 -0.85946,0.10637 -0.46857,0.25078 -4.02475,0.56142 -7.90261,0.69033 -3.87786,0.12891 -8.10248,0.34589 -9.38804,0.48218 l -2.33739,0.24781 v 11.54362 11.54361 h -3.79832 c -3.08892,0 -3.84996,-0.13456 -4.07479,-0.72046 z m 21.67485,-29.13807 c 5.51288,-0.8905 8.47706,-3.55657 9.37372,-8.43102 0.81977,-4.45641 0.0432,-7.48691 -2.62478,-10.24285 -2.7088,-2.79813 -4.95583,-3.41846 -13.76112,-3.79898 l -6.78956,-0.29341 v 11.32341 c 0,6.22788 0.13356,11.45698 0.29681,11.62022 0.46843,0.46843 10.30686,0.33922 13.50493,-0.17737 z"
       id="path13" />
    <path
       style="fill:#f9f9f9;stroke-width:4.09555"
       d="m 155.30245,277.25935 c -0.75725,-0.16657 -1.35744,-1.58266 -3.25513,-7.68022 -0.57156,-1.83652 -2.56829,-8.24765 -4.43717,-14.24696 -3.59463,-11.53915 -4.19523,-13.48012 -6.47497,-20.92521 -2.90454,-9.48555 -5.05161,-16.40182 -6.91061,-22.26087 -2.22798,-7.02199 -3.88832,-12.46581 -4.03378,-13.22573 -0.13296,-0.6946 -1.48392,-4.98694 -1.93288,-6.14123 -0.4665,-1.19942 -2.07879,-6.50611 -2.97586,-9.79478 -0.40077,-1.46922 -0.86754,-2.87165 -1.03727,-3.11652 -0.16973,-0.24487 -0.36169,-1.20183 -0.4266,-2.12657 l -0.118,-1.68135 6.78811,0.12309 6.78811,0.12309 0.3339,1.11304 c 1.98468,6.61585 3.39891,11.26652 4.67085,15.36 0.83696,2.69356 1.94423,6.29983 2.4606,8.01391 0.51638,1.71409 1.29145,4.21844 1.72239,5.56522 0.78513,2.45378 1.51492,4.83247 4.91737,16.02783 1.00467,3.30574 2.19336,7.11234 2.64154,8.45913 0.44817,1.34678 1.71825,5.35374 2.82238,8.90434 5.03007,16.17538 6.59872,20.92522 6.9106,20.92522 0.18448,0 2.11603,-5.76 4.29234,-12.8 2.17631,-7.04 4.50568,-14.50295 5.1764,-16.58435 1.30168,-4.03944 3.88814,-12.39906 6.19876,-20.03478 0.77803,-2.57113 1.67834,-5.47617 2.00067,-6.45565 0.67844,-2.06157 2.11455,-6.68269 4.42754,-14.24696 0.89851,-2.93843 2.27379,-7.34608 3.05618,-9.79478 l 1.42251,-4.45217 6.05715,-0.12345 c 4.63767,-0.0945 6.17312,0.0163 6.55203,0.47285 0.37216,0.44843 0.0642,2.12975 -1.24196,6.78 -0.95526,3.40104 -1.63794,6.34374 -1.51706,6.53933 0.12088,0.19559 0.0455,0.35561 -0.16754,0.35561 -0.21303,0 -0.65492,1.05183 -0.98197,2.3374 -0.32706,1.28556 -0.94408,3.4393 -1.37116,4.78608 -0.42708,1.34678 -1.81639,5.85461 -3.08733,10.01739 -3.28494,10.75925 -4.35622,14.23561 -5.55654,18.03131 -0.58078,1.83652 -1.88717,6.04382 -2.9031,9.34956 -1.01593,3.30574 -2.8176,9.11583 -4.00371,12.91131 -1.18612,3.79548 -2.69694,8.704 -3.35738,10.90782 -0.66045,2.20383 -1.56686,5.10887 -2.01426,6.45566 -1.07851,3.24661 -2.46463,7.80011 -3.06591,10.07172 l -0.48576,1.83519 -6.11992,0.30493 c -5.89733,0.29383 -10.19859,0.26478 -11.76356,-0.0795 z"
       id="path14" />
    <path
       style="fill:#f9f9f9;stroke-width:4.09555"
       d="m 154.86382,277.01239 c -0.84129,-0.84129 -0.20879,1.09093 -10.37595,-31.69761 -4.55579,-14.69217 -9.25451,-29.81843 -10.4416,-33.61391 -1.1871,-3.79548 -2.60112,-8.40348 -3.14227,-10.24 -0.92633,-3.14372 -2.22429,-7.28829 -4.04343,-12.91131 -0.43571,-1.34678 -1.14021,-3.75095 -1.56556,-5.3426 -0.42536,-1.59166 -0.9051,-3.09426 -1.0661,-3.33913 -0.161,-0.24487 -0.34582,-1.20183 -0.41073,-2.12657 l -0.118,-1.68135 6.77567,0.12309 6.77568,0.12309 1.5148,4.89739 c 0.83314,2.69356 2.31277,7.50191 3.28807,10.68522 1.84346,6.01692 3.64578,11.85614 5.77162,18.69913 0.68464,2.20382 3.87817,12.52173 7.09673,22.92869 7.62334,24.64943 8.50566,27.30916 8.91158,26.8636 0.18699,-0.20524 1.05801,-2.57699 1.93562,-5.27056 1.41445,-4.34125 18.36735,-59.04423 22.42119,-72.34782 0.85808,-2.816 1.7476,-5.47061 1.97669,-5.89913 0.36492,-0.68257 1.15625,-0.77913 6.38504,-0.77913 6.25205,0 6.81441,0.17262 6.52673,2.00348 -0.077,0.48974 -0.72711,3.06232 -1.44479,5.71686 -0.71769,2.65454 -1.37093,5.15888 -1.45166,5.56522 -0.0807,0.40633 -0.27277,1.03931 -0.42678,1.40661 -0.30593,0.72965 -5.08128,16.25078 -7.94479,25.82261 -0.98894,3.30574 -2.25192,7.41287 -2.80662,9.12696 -0.5547,1.71408 -1.53071,4.81947 -2.16892,6.90087 -0.6382,2.08139 -2.2481,7.29043 -3.57755,11.57565 -1.32945,4.28522 -3.15197,10.19548 -4.05006,13.13391 -1.43134,4.68318 -2.2953,7.41935 -4.96036,15.70947 -0.33731,1.04926 -0.61636,2.15117 -0.6201,2.4487 -0.0203,1.60677 -0.66275,1.74186 -9.4183,1.98027 -7.46697,0.20333 -8.74391,0.14024 -9.34585,-0.4617 z"
       id="path15" />
    <path
       style="fill:#f9f9f9;stroke-width:4.09555"
       d="m 106.20343,270.91478 -2.65222,-0.22261 -3.616639,-14.02434 c -1.989152,-7.7134 -3.7546,-14.57531 -3.923219,-15.2487 -0.300403,-1.19969 -0.266223,-1.22435 1.6969,-1.22435 1.817128,0 2.030978,0.11388 2.299128,1.22435 1.27827,5.29353 6.40572,24.75281 6.56398,24.91107 0.26073,0.26073 0.24356,0.3217 3.41026,-12.11107 1.49687,-5.87687 2.91543,-11.43652 3.15236,-12.35478 0.42917,-1.66335 0.43951,-1.66957 2.77499,-1.66957 h 2.34422 l 3.31515,13.13253 c 1.82332,7.2229 3.43528,13.13316 3.58211,13.13392 0.14684,7.6e-4 1.71957,-5.75862 3.49496,-12.79862 1.77539,-7.04 3.38108,-12.96311 3.56819,-13.16247 0.18711,-0.19936 1.12962,-0.29953 2.09445,-0.22261 l 1.75425,0.13986 -3.62175,14.02435 c -1.99196,7.71339 -3.75971,14.5753 -3.92833,15.24869 -0.29144,1.1639 -0.4372,1.22435 -2.95224,1.22435 h -2.64566 l -0.44011,-1.66956 c -0.24206,-0.91826 -1.56206,-6.17739 -2.93334,-11.68696 -3.36646,-13.52589 -3.35572,-13.48772 -3.70231,-13.14625 -0.16755,0.16508 -1.80726,6.24583 -3.64378,13.51277 l -3.33913,13.21261 z"
       id="path16" />
  </g>
</svg>
